<?xml version="1.0" standalone="no"?>
<!DOCTYPE svg PUBLIC "-//W3C//DTD SVG 20010904//EN"
 "http://www.w3.org/TR/2001/REC-SVG-20010904/DTD/svg10.dtd">
<svg version="1.0" xmlns="http://www.w3.org/2000/svg"
 width="700.000000pt" height="700.000000pt" viewBox="0 0 700.000000 700.000000"
 preserveAspectRatio="xMidYMid meet">
<metadata>
Created by potrace 1.11, written by Peter Selinger 2001-2013
</metadata>
<g transform="translate(0.000000,700.000000) scale(0.100000,-0.100000)"
fill="#000000" stroke="none">
<path d="M854 5997 c-90 -34 -171 -116 -194 -197 -6 -23 -10 -629 -10 -1705
l0 -1670 -116 -145 c-63 -80 -123 -154 -132 -165 -10 -11 -24 -29 -32 -41 -8
-11 -31 -41 -51 -65 -102 -124 -284 -356 -301 -385 -18 -31 -19 -49 -16 -252
l3 -219 30 -49 c19 -30 49 -60 79 -79 l49 -30 3337 0 3337 0 49 30 c30 19 60
49 79 79 l30 49 3 212 c3 159 0 219 -10 243 -12 29 -67 102 -243 322 -38 48
-83 104 -100 125 -16 21 -89 112 -162 204 l-132 166 -1 1665 c-1 916 -3 1676
-6 1689 -15 82 -81 164 -164 204 l-45 22 -2625 2 c-1988 1 -2633 -1 -2656 -10z
m5079 -400 c9 -3 12 -326 11 -1378 -1 -756 -2 -1377 -3 -1381 -1 -10 -4881
-10 -4882 0 -1 4 -2 626 -3 1382 -1 1078 1 1376 11 1380 15 6 4850 3 4866 -3z
m-1787 -3986 c7 -1 11 -56 11 -174 l1 -172 -652 1 c-358 1 -654 2 -657 3 -9 2
-7 335 1 341 6 4 1252 5 1296 1z"/>
<path d="M3985 4131 l0 -968 242 -1 243 0 0 969 0 969 -243 0 -242 0 0 -969z"/>
<path d="M4719 4609 c-5 -3 -8 -300 -7 -725 l3 -719 238 -1 c172 -2 237 1 238
10 1 6 2 332 3 723 1 627 -1 713 -14 714 -52 5 -454 3 -461 -2z"/>
<path d="M3318 4372 c-46 -2 -58 -6 -59 -20 0 -9 -2 -281 -2 -604 l-2 -587
243 1 c172 0 242 4 243 12 3 58 1 1188 -3 1191 -6 6 -337 11 -420 7z"/>
<path d="M2532 3648 l3 -483 240 0 240 0 0 483 1 482 -243 0 -243 0 2 -482z"/>
<path d="M1812 3641 c-4 -3 -7 -111 -7 -239 0 -198 2 -233 15 -236 8 -3 117
-4 243 -4 l227 0 0 242 0 242 -235 0 c-129 0 -238 -2 -243 -5z"/>
</g>
</svg>
